<svg viewBox="0 0 200 200" fill="none" xmlns="http://www.w3.org/2000/svg">
  <!-- 펼친 책/워크북 — 손그림 스타일 -->

  <!-- 왼쪽 페이지 -->
  <path
    stroke="#191919"
    stroke-width="2"
    stroke-linecap="round"
    stroke-linejoin="round"
    d="M100 55c-10-8-30-12-55-10v100c25-2 45 2 55 10"
  />

  <!-- 오른쪽 페이지 -->
  <path
    stroke="#191919"
    stroke-width="2"
    stroke-linecap="round"
    stroke-linejoin="round"
    d="M100 55c10-8 30-12 55-10v100c-25-2-45 2-55 10"
  />

  <!-- 책등 중앙선 -->
  <path stroke="#191919" stroke-width="1.5" stroke-linecap="round" d="M100 55v100"/>

  <!-- 왼쪽 페이지 텍스트 라인 -->
  <path stroke="#191919" stroke-width="1" stroke-linecap="round" opacity="0.5" d="M60 70h30"/>
  <path stroke="#191919" stroke-width="1" stroke-linecap="round" opacity="0.5" d="M58 82h32"/>
  <path stroke="#191919" stroke-width="1" stroke-linecap="round" opacity="0.5" d="M56 94h34"/>
  <path stroke="#191919" stroke-width="1" stroke-linecap="round" opacity="0.5" d="M55 106h35"/>

  <!-- 오른쪽 페이지 텍스트 라인 -->
  <path stroke="#191919" stroke-width="1" stroke-linecap="round" opacity="0.5" d="M110 70h30"/>
  <path stroke="#191919" stroke-width="1" stroke-linecap="round" opacity="0.5" d="M110 82h32"/>
  <path stroke="#191919" stroke-width="1" stroke-linecap="round" opacity="0.5" d="M110 94h34"/>

  <!-- 연필 -->
  <path
    stroke="#191919"
    stroke-width="2"
    stroke-linecap="round"
    stroke-linejoin="round"
    d="M135 110l20-50 5 2-20 50z"
  />
  <!-- 연필 팁 -->
  <path
    stroke="#191919"
    stroke-width="1.5"
    stroke-linecap="round"
    d="M135 110l-3 8 8-6"
  />

  <!-- 하트 (오른쪽 페이지 위) -->
  <path
    stroke="#191919"
    stroke-width="1.5"
    stroke-linecap="round"
    stroke-linejoin="round"
    d="M125 108c-1-1-5-4-6-7-1-2 1-5 3-5 2 0 2 1 3 2 1-1 1-2 3-2 2 0 4 3 3 5-1 3-5 6-6 7z"
  />

  <!-- 작은 별 장식 -->
  <path stroke="#191919" stroke-width="1.2" stroke-linecap="round" d="M30 40l2 5 5 2-5 2-2 5-2-5-5-2 5-2z"/>
  <path stroke="#191919" stroke-width="1.2" stroke-linecap="round" d="M170 45l2 5 5 2-5 2-2 5-2-5-5-2 5-2z"/>
  <path stroke="#191919" stroke-width="1.2" stroke-linecap="round" d="M165 165l1.5 4 4 1.5-4 1.5-1.5 4-1.5-4-4-1.5 4-1.5z"/>

  <!-- 물결선 장식 -->
  <path
    stroke="#191919"
    stroke-width="1.5"
    stroke-linecap="round"
    d="M30 170c5-3 10 3 15 0s10 3 15 0"
  />
</svg>
