<svg viewBox="0 0 200 200" fill="none" xmlns="http://www.w3.org/2000/svg">
  <!-- 신비로운 눈 — 손그림 스타일 -->

  <!-- 눈 외곽 (아몬드 형태) -->
  <path
    stroke="#191919"
    stroke-width="2"
    stroke-linecap="round"
    stroke-linejoin="round"
    d="M30 100c0 0 30-45 70-45s70 45 70 45-30 45-70 45-70-45-70-45z"
  />

  <!-- 홍채 원 -->
  <circle cx="100" cy="100" r="25" stroke="#191919" stroke-width="2"/>

  <!-- 동공 -->
  <circle cx="100" cy="100" r="10" fill="#191919"/>

  <!-- 동공 하이라이트 -->
  <circle cx="106" cy="94" r="4" fill="white"/>

  <!-- 위 속눈썹 — 방사형 -->
  <path stroke="#191919" stroke-width="1.5" stroke-linecap="round" d="M60 72l-5-15"/>
  <path stroke="#191919" stroke-width="1.5" stroke-linecap="round" d="M75 62l-2-16"/>
  <path stroke="#191919" stroke-width="1.5" stroke-linecap="round" d="M90 57l1-16"/>
  <path stroke="#191919" stroke-width="1.5" stroke-linecap="round" d="M105 55l4-15"/>
  <path stroke="#191919" stroke-width="1.5" stroke-linecap="round" d="M120 58l7-14"/>
  <path stroke="#191919" stroke-width="1.5" stroke-linecap="round" d="M135 66l10-10"/>

  <!-- 아래 장식 — 눈물 방울 -->
  <path
    stroke="#191919"
    stroke-width="1.5"
    stroke-linecap="round"
    stroke-linejoin="round"
    d="M100 150c-3-8-8-15 0-22 8 7 3 14 0 22z"
  />

  <!-- 작은 별 장식 -->
  <path stroke="#191919" stroke-width="1.2" stroke-linecap="round" d="M40 50l2 5 5 2-5 2-2 5-2-5-5-2 5-2z"/>
  <path stroke="#191919" stroke-width="1.2" stroke-linecap="round" d="M155 45l2 5 5 2-5 2-2 5-2-5-5-2 5-2z"/>
  <path stroke="#191919" stroke-width="1.2" stroke-linecap="round" d="M165 155l1.5 4 4 1.5-4 1.5-1.5 4-1.5-4-4-1.5 4-1.5z"/>

  <!-- 초승달 장식 -->
  <path
    stroke="#191919"
    stroke-width="1.5"
    stroke-linecap="round"
    d="M28 135c8-5 8-20 0-25 12 2 15 23 0 25z"
  />
</svg>
