<svg viewBox="0 0 200 200" fill="none" xmlns="http://www.w3.org/2000/svg">
  <!-- 메인 별 - 손그림 스타일 -->
  <path
    stroke="#191919"
    stroke-width="2"
    stroke-linecap="round"
    stroke-linejoin="round"
    d="M100 30l15 45h48l-38 28 15 47-40-30-40 30 15-47-38-28h48z"
  />
  <!-- 작은 반짝임 -->
  <path
    stroke="#191919"
    stroke-width="1.5"
    stroke-linecap="round"
    d="M45 50l3 8 8 3-8 3-3 8-3-8-8-3 8-3z"
  />
  <path
    stroke="#191919"
    stroke-width="1.5"
    stroke-linecap="round"
    d="M160 70l2 5 5 2-5 2-2 5-2-5-5-2 5-2z"
  />
  <path
    stroke="#191919"
    stroke-width="1.5"
    stroke-linecap="round"
    d="M55 160l2 5 5 2-5 2-2 5-2-5-5-2 5-2z"
  />
  <!-- 곡선 장식 -->
  <path
    stroke="#191919"
    stroke-width="1.5"
    stroke-linecap="round"
    d="M150 150c5-5 15-5 20 0"
  />
</svg>
